<svg width="20" height="20" viewBox="0 0 20 20" fill="none" xmlns="http://www.w3.org/2000/svg">
<path d="M10 1.66667C5.40502 1.66667 1.66669 5.40501 1.66669 10C1.66669 14.595 5.40502 18.3333 10 18.3333C14.595 18.3333 18.3334 14.595 18.3334 10C18.3334 5.40501 14.595 1.66667 10 1.66667ZM10 16.6667C6.32419 16.6667 3.33335 13.6758 3.33335 10C3.33335 6.32417 6.32419 3.33334 10 3.33334C13.6759 3.33334 16.6667 6.32417 16.6667 10C16.6667 13.6758 13.6759 16.6667 10 16.6667Z" fill="white" fill-opacity="0.9"/>
<path d="M7.5 14.1667L14.1667 9.99999L7.5 5.83333V14.1667Z" fill="white" fill-opacity="0.9"/>
</svg>
